<?xml version="1.0" encoding="utf-8"?>
<!-- Generator: Adobe Illustrator 16.0.0, SVG Export Plug-In . SVG Version: 6.00 Build 0)  -->
<!DOCTYPE svg PUBLIC "-//W3C//DTD SVG 1.1//EN" "http://www.w3.org/Graphics/SVG/1.1/DTD/svg11.dtd">
<svg version="1.1" id="Layer_1" xmlns="http://www.w3.org/2000/svg" xmlns:xlink="http://www.w3.org/1999/xlink" x="0px" y="0px"
	 width="21px" height="42px" viewBox="0 0 21 42" enable-background="new 0 0 21 42" xml:space="preserve">
<rect x="19.994" y="0" fill="#020202" width="1" height="8"/>
<rect x="12.994" y="0" fill="#020202" width="8" height="1"/>
<rect x="14.236" y="2.559" transform="matrix(0.707 -0.7072 0.7072 0.707 3.0892 13.5756)" fill="#020202" width="7.387" height="1"/>
<rect y="13" fill="#020202" width="1" height="8"/>
<rect y="20" fill="#020202" width="8" height="1"/>
<rect x="-0.629" y="17.441" transform="matrix(-0.7071 0.7071 -0.7071 -0.7071 17.9178 28.461)" fill="#020202" width="7.386" height="1"/>
<rect x="12.994" y="21" fill="#020202" width="1" height="8"/>
<rect x="12.994" y="28" fill="#020202" width="8" height="1"/>
<rect x="12.366" y="25.441" transform="matrix(-0.7071 0.7071 -0.7071 -0.7071 45.7571 32.9296)" fill="#020202" width="7.386" height="1"/>
<rect x="7" y="34" fill="#020202" width="1" height="8"/>
<rect y="34" fill="#020202" width="8" height="1"/>
<rect x="1.242" y="36.559" transform="matrix(0.7071 -0.7071 0.7071 0.7071 -24.7578 14.3426)" fill="#020202" width="7.386" height="1"/>
</svg>
